<?xml version="1.0" standalone="no"?>
<!DOCTYPE svg PUBLIC "-//W3C//DTD SVG 20010904//EN"
 "http://www.w3.org/TR/2001/REC-SVG-20010904/DTD/svg10.dtd">
<svg version="1.0"
        xmlns="http://www.w3.org/2000/svg" width="1024.000000pt" height="1024.000000pt" viewBox="0 0 1024.000000 1024.000000" preserveAspectRatio="xMidYMid meet">

        <g transform="translate(0.000000,1024.000000) scale(0.100000,-0.100000)" fill="#000000" stroke="none">
                <path d="M4940 9245 c-538 -260 -978 -421 -1508 -555 -224 -56 -506 -110 -697 -135 -71 -9 -135 -19 -141 -20 -15 -4 -19 -160 -18 -670 1 -745 70 -1299 229 -1855 171 -598 437 -1049 857 -1455 351 -340 738 -590 1289 -830 l176 -77 179 82 c470 216 721 365 1019 602 738 589 1121 1337 1275 2489 63 469 85 1132 53 1620 l-6 96 -136 17 c-686 88 -1408 312 -2195 682 -110 52 -200 94 -200 94 -1 0 -80 -39 -176 -85z m841 -508 c530 -210 1116 -376 1504 -429 l92 -12 7 -110 c21 -373 -6 -913 -70 -1371 -127 -915 -396 -1517 -904 -2025 -280 -280 -606 -506 -1044 -721 -259 -128 -226 -124 -403 -45 -945 427 -1553 1062 -1841 1923 -141 421 -233 967 -262 1558 -11 228 -12 557 -1 699 l6 89 165 28 c483 81 998 234 1526 453 186 77 396 171 498 223 l58 30 253 -113 c138 -62 326 -142 416 -177z" fill="#014170"/>
                <path d="M5002 8563 c-325 -495 -387 -697 -284 -917 79 -169 271 -267 466 -239 200 28 345 168 378 363 23 135 -17 287 -128 485 -71 127 -300 475 -312 475 -5 0 -59 -75 -120 -167z m-106 -762 c23 -60 101 -141 164 -171 27 -13 50 -27 50 -32 0 -4 -31 -8 -68 -8 -87 0 -157 32 -198 92 -26 37 -29 50 -29 118 0 61 5 88 25 130 l25 54 7 -69 c4 -38 15 -89 24 -114z" fill="#0183C7"/>
                <path d="M4148 8021 c-195 -293 -246 -468 -177 -607 88 -174 334 -207 466 -61 55 62 77 120 77 207 0 123 -48 235 -198 465 l-82 125 -86 -129z m-98 -414 c0 -26 60 -137 97 -178 l38 -42 -34 6 c-83 17 -121 70 -121 170 0 43 4 66 10 62 6 -3 10 -12 10 -18z" fill="#0183C7"/>
                <path d="M5928 8018 c-86 -138 -157 -276 -184 -358 -52 -160 10 -316 154 -387 190 -93 402 56 402 282 0 78 -25 159 -82 265 -43 82 -198 320 -208 320 -3 0 -40 -55 -82 -122z m-1 -575 c47 -49 49 -53 27 -53 -39 0 -88 25 -117 59 -22 26 -27 43 -27 85 0 29 3 55 6 59 4 3 18 -17 33 -45 14 -29 49 -76 78 -105z" fill="#0183C7"/>
                <path d="M4840 7014 c-898 -738 -1462 -1214 -1468 -1240 -3 -12 27 -14 165 -14 l168 0 200 162 c729 589 1208 969 1218 965 20 -8 945 -758 1351 -1095 l49 -40 172 -2 c140 -1 174 2 184 14 13 16 25 5 -509 443 l-255 209 -3 262 -2 262 -168 0 -167 0 3 -111 c3 -97 1 -111 -12 -106 -15 6 -565 446 -617 493 -14 13 -27 24 -30 24 -2 0 -128 -102 -279 -226z" fill="#003562"/>
                <path d="M4817 6263 c-4 -3 -7 -64 -7 -135 l0 -128 130 0 130 0 0 135 0 135 -123 0 c-68 0 -127 -3 -130 -7z" fill="#003562"/>
                <path d="M5160 6135 l0 -135 130 0 130 0 0 135 0 135 -130 0 -130 0 0 -135z" fill="#003562"/>
                <path d="M4810 5780 l0 -130 130 0 130 0 0 130 0 130 -130 0 -130 0 0 -130z" fill="#003562"/>
                <path d="M5160 5780 l0 -130 130 0 130 0 0 130 0 130 -130 0 -130 0 0 -130z" fill="#003562"/>
                <path d="M3935 5476 c-114 -19 -197 -43 -276 -78 l-69 -31 57 -81 c231 -332 534 -617 874 -822 136 -82 409 -214 523 -254 l88 -30 92 36 c259 104 626 319 851 501 119 96 272 252 376 383 111 140 213 290 203 300 -17 17 -134 40 -242 49 -166 13 -258 1 -545 -70 -272 -68 -378 -83 -592 -83 -227 0 -306 12 -574 90 -102 30 -233 63 -291 75 -135 26 -365 34 -475 15z" fill="#0183C7"/>
                <path d="M1288 2819 l-3 -428 -23 -23 c-33 -34 -111 -32 -181 5 -29 15 -54 27 -56 27 -2 0 -30 -38 -64 -85 l-60 -84 27 -19 c46 -32 104 -59 161 -72 67 -16 201 -8 254 14 53 23 115 82 142 136 40 79 45 141 45 562 l0 397 -120 -1 -119 -1 -3 -428z" fill="#003562"/>
                <path d="M2810 2700 l0 -550 120 0 120 0 0 347 0 348 27 -40 c14 -22 125 -178 245 -347 l219 -308 109 0 110 0 0 550 0 550 -115 0 -115 0 -2 -357 -3 -357 -250 355 -251 354 -107 3 -107 3 0 -551z" fill="#003562"/>
                <path d="M5090 2700 l0 -550 120 0 120 0 0 188 0 188 48 46 47 46 175 -234 175 -234 148 0 149 0 -39 48 c-22 26 -131 165 -242 310 -201 261 -203 264 -184 285 26 31 309 344 360 399 23 26 43 49 43 53 0 3 -64 4 -142 3 l-143 -3 -197 -233 -198 -233 0 236 0 235 -120 0 -120 0 0 -550z" fill="#003562"/>
                <path d="M6168 2701 l-3 -551 118 0 117 0 0 185 0 185 133 0 c235 0 357 54 432 192 34 62 45 177 26 263 -17 75 -77 164 -137 202 -92 59 -132 65 -421 71 l-263 4 -2 -551z m528 313 c53 -39 69 -71 69 -134 0 -71 -21 -105 -85 -137 -39 -20 -60 -23 -162 -23 l-118 0 0 161 0 161 134 -4 c117 -3 138 -6 162 -24z" fill="#003562"/>
                <path d="M7162 2858 c3 -376 4 -395 25 -451 64 -170 197 -261 399 -274 205 -13 364 52 439 181 49 84 55 140 55 554 l0 382 -114 0 -115 0 -3 -372 c-3 -354 -4 -375 -24 -418 -42 -92 -134 -132 -251 -111 -71 14 -119 50 -153 117 l-25 49 -3 368 -3 367 -115 0 -115 0 3 -392z" fill="#003562"/>
                <path d="M8290 2700 l0 -550 115 0 115 0 0 195 0 196 77 -3 77 -3 114 -192 114 -193 134 0 134 0 -82 128 c-44 70 -103 162 -129 204 l-49 78 41 21 c63 31 124 94 150 152 20 43 24 68 24 147 0 81 -4 103 -27 151 -57 123 -156 190 -308 209 -46 5 -178 10 -292 10 l-208 0 0 -550z m536 314 c51 -38 68 -70 68 -129 0 -63 -21 -100 -75 -127 -27 -15 -60 -18 -166 -18 l-133 0 0 151 0 151 139 -4 c122 -3 143 -6 167 -24z" fill="#003562"/>
                <path d="M2020 3231 c0 -7 -329 -871 -407 -1068 -4 -10 25 -13 124 -13 l129 0 34 105 34 105 212 0 212 0 37 -105 38 -105 128 0 c71 0 129 1 129 3 0 2 -90 235 -201 518 -110 283 -205 526 -211 542 l-10 27 -124 0 c-71 0 -124 -4 -124 -9z m270 -668 c0 -2 -65 -3 -145 -3 l-144 0 54 158 c29 86 61 179 71 206 l17 48 73 -203 c41 -112 74 -205 74 -206z" fill="#003562"/>
                <path d="M4100 2704 c-113 -294 -206 -539 -208 -544 -2 -6 46 -10 125 -10 l129 0 34 105 34 105 212 0 212 0 30 -82 c16 -46 33 -93 36 -105 7 -22 11 -23 137 -23 71 0 129 2 129 4 0 2 -90 234 -201 517 -110 283 -205 526 -211 542 l-10 27 -121 0 -122 -1 -205 -535z m405 41 c35 -99 62 -181 61 -183 -2 -1 -66 -1 -143 0 l-139 3 70 203 c58 169 71 200 79 180 5 -13 37 -104 72 -203z" fill="#003562"/>
                <path d="M2370 1528 l0 -218 140 0 141 0 -3 35 -2 35 -93 0 -93 0 0 55 0 55 85 0 85 0 0 40 0 40 -85 0 -85 0 0 50 0 50 90 0 90 0 0 34 0 35 -135 3 -135 3 0 -217z" fill="#003562"/>
                <path d="M4156 1735 c-46 -16 -99 -65 -122 -113 -21 -45 -21 -136 0 -187 42 -99 143 -148 255 -124 173 37 224 266 87 387 -58 51 -142 65 -220 37z m150 -92 c46 -30 67 -117 44 -178 -18 -48 -58 -75 -112 -75 -41 0 -54 5 -85 34 -33 30 -37 39 -41 92 -3 50 0 65 20 94 39 57 116 72 174 33z" fill="#003562"/>
                <path d="M4653 1725 c-154 -77 -156 -311 -4 -392 56 -29 147 -31 206 -4 137 62 168 249 59 358 -69 68 -170 83 -261 38z m188 -94 c39 -39 45 -58 40 -126 -6 -71 -56 -115 -131 -115 -32 0 -48 7 -77 33 -31 29 -37 41 -41 89 -7 93 46 158 132 158 31 0 45 -7 77 -39z" fill="#003562"/>
                <path d="M5213 1743 l-133 -4 0 -214 0 -215 45 0 45 0 0 85 0 85 80 0 80 0 0 43 0 42 -80 -3 -80 -4 0 56 0 56 90 0 90 0 0 40 c0 22 -1 39 -2 38 -2 -1 -63 -4 -135 -5z" fill="#003562"/>
                <path d="M5450 1528 l0 -218 45 0 45 0 0 218 0 217 -45 0 -45 0 0 -217z" fill="#003562"/>
                <path d="M5654 1741 c-2 -2 -4 -100 -4 -218 l0 -213 45 0 44 0 3 136 3 135 95 -135 95 -135 43 -1 42 0 0 218 0 217 -42 -1 -43 -1 0 -137 c0 -75 -2 -136 -5 -136 -3 1 -48 61 -100 135 -90 127 -96 133 -133 137 -21 2 -40 2 -43 -1z" fill="#003562"/>
                <path d="M6242 1729 c-150 -75 -166 -310 -26 -398 145 -93 311 -13 331 160 l6 49 -97 0 -96 0 0 -35 0 -35 51 0 51 0 -19 -32 c-10 -18 -36 -41 -57 -52 -32 -16 -44 -17 -76 -7 -102 31 -132 165 -55 249 30 33 39 37 82 37 46 0 60 -6 118 -49 8 -6 24 -3 45 11 l31 20 -27 33 c-58 69 -177 91 -262 49z" fill="#003562"/>
                <path d="M6830 1528 l0 -218 138 0 137 0 0 35 0 35 -92 0 -93 0 0 55 0 55 85 0 85 0 0 38 0 37 -85 -2 -85 -2 0 54 0 55 90 0 90 0 0 34 0 35 -135 3 -135 3 0 -217z" fill="#003562"/>
                <path d="M7200 1742 c0 -1 29 -48 64 -104 l63 -101 -29 -46 c-16 -25 -49 -76 -73 -113 l-45 -68 53 0 c51 0 52 1 80 48 16 26 36 58 47 71 l18 25 46 -72 47 -72 54 0 55 0 -34 48 c-18 26 -52 77 -75 114 l-42 66 66 100 c36 55 65 101 65 103 0 2 -21 3 -48 1 -47 -4 -48 -5 -88 -69 l-41 -65 -41 65 c-41 65 -41 65 -92 69 -27 1 -50 2 -50 0z" fill="#003562"/>
                <path d="M8460 1528 l0 -218 45 0 45 0 0 78 0 78 35 -4 c31 -4 38 -11 75 -78 l41 -74 50 0 51 0 -23 38 c-13 20 -35 57 -50 81 l-27 44 39 37 c36 34 39 41 39 94 0 50 -4 60 -34 94 l-34 37 -126 5 -126 5 0 -217z m214 123 c9 -8 16 -28 16 -47 0 -43 -30 -64 -92 -64 l-48 0 0 66 0 66 54 -4 c30 -3 62 -10 70 -17z" fill="#003562"/>
                <path d="M9028 1743 l-168 -3 0 -41 0 -40 63 2 62 3 0 -177 0 -177 48 0 47 0 0 178 0 177 60 -3 60 -4 0 46 c0 25 -1 45 -2 44 -2 -1 -78 -4 -170 -5z" fill="#003562"/>
                <path d="M930 1688 c9 -29 39 -126 65 -215 l48 -163 46 0 46 0 39 140 c22 77 40 140 42 140 1 0 12 -33 24 -72 12 -40 31 -103 42 -140 l20 -68 43 0 c40 0 44 2 54 33 11 34 98 323 112 370 8 27 7 27 -39 27 l-47 0 -39 -141 c-21 -77 -41 -137 -45 -134 -3 4 -22 66 -41 138 l-36 132 -45 3 -45 3 -40 -145 c-21 -80 -42 -140 -45 -133 -4 7 -17 48 -28 92 -12 44 -29 104 -37 133 l-15 52 -48 0 -48 0 17 -52z" fill="#003562"/>
                <path d="M1606 1531 c-42 -115 -76 -212 -76 -215 0 -3 20 -6 44 -6 43 0 45 1 59 43 7 23 17 41 20 40 4 -2 42 -3 85 -3 l79 0 12 -40 c12 -40 12 -40 61 -40 l49 0 -15 36 c-8 20 -42 109 -74 198 -32 88 -61 169 -65 179 -5 13 -19 17 -55 17 l-47 0 -77 -209z m153 36 c13 -39 26 -78 28 -84 4 -10 -11 -13 -55 -13 l-60 0 27 85 c14 47 28 85 31 85 3 0 16 -33 29 -73z" fill="#003562"/>
                <path d="M1950 1699 l0 -41 60 4 60 3 0 -177 0 -178 45 0 45 0 2 176 3 177 59 1 60 1 1 38 1 37 -168 0 -168 0 0 -41z" fill="#003562"/>
                <path d="M2750 1525 l0 -215 45 0 45 0 0 75 0 75 33 0 c30 0 35 -5 72 -75 l40 -75 52 0 52 0 -50 81 c-28 44 -49 82 -47 84 2 1 13 8 25 14 50 26 72 135 38 187 -34 52 -70 64 -192 64 l-113 0 0 -215z m216 124 c19 -15 18 -74 -2 -93 -9 -9 -32 -16 -54 -16 -21 0 -45 -3 -54 -6 -14 -5 -16 4 -16 66 l0 73 56 -6 c30 -3 62 -11 70 -18z" fill="#003562"/>
                <path d="M3180 1525 l0 -215 50 0 50 0 0 70 0 70 53 0 c30 0 70 9 95 20 78 35 104 147 50 215 -36 46 -68 55 -188 55 l-110 0 0 -215z m188 134 c35 -12 56 -46 45 -76 -14 -40 -35 -53 -85 -53 l-48 0 0 68 c0 66 1 68 27 70 15 1 42 -3 61 -9z" fill="#003562"/>
                <path d="M3608 1525 l3 -215 44 0 45 0 0 75 0 75 28 0 c23 0 32 -10 67 -75 l40 -75 52 0 52 0 -49 78 -48 79 33 26 c59 47 70 133 24 191 -36 46 -69 56 -186 56 l-108 0 3 -215z m215 114 c24 -29 21 -55 -8 -84 -18 -19 -35 -25 -70 -25 l-45 0 0 71 0 72 53 -6 c36 -5 57 -13 70 -28z" fill="#003562"/>
                <path d="M7658 1526 l3 -216 44 0 45 0 0 70 0 70 53 0 c79 0 137 33 161 91 24 61 16 109 -29 157 l-33 37 -124 3 -123 4 3 -216z m214 114 c23 -29 23 -51 -3 -84 -17 -22 -28 -26 -70 -26 l-49 0 0 71 0 72 52 -5 c38 -4 57 -12 70 -28z" fill="#003562"/>
                <path d="M8070 1525 l0 -215 140 0 140 0 0 35 0 34 -92 3 -93 3 0 53 -1 52 88 0 88 0 0 41 0 40 -87 -2 -87 -2 0 49 -1 49 93 3 92 3 0 34 0 35 -140 0 -140 0 0 -215z" fill="#003562"/>
        </g>
</svg>
